# Blender v2.79 (sub 4) OBJ File: ''
# www.blender.org
mtllib box.mtl
o Box_low
v 4.356819 8.776658 4.371864
v 4.356818 8.776658 3.118800
v 3.104916 8.772360 3.119967
v 3.104706 8.772337 4.371864
v 4.361109 7.525253 4.371864
v 4.361117 7.524756 3.119966
v 3.109217 7.520456 4.371864
v 4.361113 7.524756 -3.119965
v 4.356788 8.776649 -3.118799
v -3.135000 8.750902 3.119972
v -3.134749 8.750907 4.371869
v -3.130672 7.499011 4.371869
v 3.130676 1.280540 4.371863
v 4.382577 1.284369 4.371862
v 4.356786 8.776649 -4.371862
v 3.104700 8.772339 -4.371862
v 3.104911 8.772360 -3.119964
v 4.361104 7.525254 -4.371863
v 3.109210 7.520457 -4.371862
v 3.105875 8.490838 -3.119964
v 3.105879 8.490836 3.119967
v 4.079616 7.523803 -3.119965
v 4.101077 1.283888 -3.119965
v 4.382563 1.284867 -3.119965
v 3.109211 7.520457 -4.090343
v -3.130678 7.499011 -4.090339
v -3.130678 7.499011 -4.371857
v -3.134754 8.750907 -4.371857
v -3.135004 8.750902 -3.119961
v 4.382573 1.284370 -4.371863
v 4.079621 7.523803 3.119966
v -3.134009 8.469388 3.119970
v -4.386864 8.746586 4.371870
v -4.386864 8.746586 3.118805
v -4.382576 7.494711 3.119971
v -4.382574 7.495182 4.371870
v -3.130672 7.499011 4.090379
v 3.109215 7.520456 4.090375
v -4.386868 8.746586 -3.118793
v -4.382581 7.494711 -3.119959
v -4.361104 1.254295 4.371868
v -3.109212 1.259092 4.371868
v -4.386869 8.746586 -4.371857
v -4.382580 7.495183 -4.371857
v -3.134012 8.469388 -3.119961
v -4.361119 1.254794 -3.119960
v -4.079607 1.255784 -3.119961
v -4.101056 7.495673 -3.119959
v -3.109219 1.259093 -4.371859
v -4.361110 1.254297 -4.371858
v -4.101052 7.495673 3.119971
v 4.386867 0.032965 4.371862
v 3.134742 0.028671 4.371863
v 3.134991 0.028676 3.119965
v 4.386866 0.032965 3.118799
v 4.382567 1.284867 3.119965
v 4.101081 1.283887 3.119965
v 4.386861 0.032965 -3.118800
v -3.104925 0.007217 3.119970
v -3.104702 0.007211 4.371868
v 4.386861 0.032965 -4.371863
v 3.134986 0.028676 -3.119965
v 3.134736 0.028672 -4.371862
v 3.130670 1.280542 -4.371862
v 3.134007 0.310162 -3.119965
v 3.134011 0.310162 3.119967
v 3.130670 1.280541 -4.090343
v -3.109218 1.259093 -4.090340
v -3.104928 0.007218 -3.119961
v -3.104708 0.007211 -4.371859
v -3.105878 0.288713 3.119970
v -4.356799 0.002929 4.371868
v -4.356800 0.002929 3.118805
v -4.361115 1.254794 3.119971
v -4.079603 1.255784 3.119971
v -3.109213 1.259092 4.090379
v 3.130676 1.280540 4.090374
v -4.356803 0.002930 -3.118795
v -4.356804 0.002930 -4.371858
v -3.105881 0.288714 -3.119961
vt 0.275400 0.275400
vt 0.312300 0.275400
vt 0.312300 0.312300
vt 0.275400 0.312300
vt 0.010000 0.798300
vt 0.010000 0.761400
vt 0.046900 0.761400
vt 0.046900 0.798300
vt 0.267400 0.532900
vt 0.230600 0.532900
vt 0.230600 0.496000
vt 0.267400 0.496000
vt 0.230600 0.761400
vt 0.230600 0.798300
vt 0.312300 0.496000
vt 0.275400 0.496000
vt 0.046900 0.532900
vt 0.046900 0.496000
vt 0.230600 0.312300
vt 0.267400 0.312300
vt 0.532900 0.275400
vt 0.532900 0.312300
vt 0.496000 0.312300
vt 0.496000 0.275400
vt 0.267400 0.798300
vt 0.267400 0.761400
vt 0.010000 0.267400
vt 0.010000 0.230600
vt 0.046900 0.230600
vt 0.046900 0.267400
vt 0.932200 0.900100
vt 0.748500 0.900100
vt 0.748500 0.891800
vt 0.932200 0.891800
vt 0.940200 0.499400
vt 0.756500 0.499400
vt 0.756500 0.491100
vt 0.940200 0.491100
vt 0.940200 0.436600
vt 0.756500 0.436600
vt 0.756500 0.428300
vt 0.940200 0.428300
vt 0.532900 0.496000
vt 0.496000 0.496000
vt 0.230600 0.231900
vt 0.230600 0.267400
vt 0.230600 0.577700
vt 0.267400 0.577700
vt 0.940200 0.746900
vt 0.940200 0.755200
vt 0.756500 0.755200
vt 0.756500 0.746900
vt 0.724600 0.891800
vt 0.724600 0.900100
vt 0.540800 0.900100
vt 0.540800 0.891800
vt 0.275400 0.532900
vt 0.312300 0.532900
vt 0.532900 0.267400
vt 0.496000 0.267400
vt 0.496000 0.230600
vt 0.532900 0.230600
vt 0.010000 0.532900
vt 0.010000 0.496000
vt 0.540800 0.819400
vt 0.724600 0.819400
vt 0.724600 0.827600
vt 0.540800 0.827600
vt 0.312300 0.267400
vt 0.312300 0.230600
vt 0.010000 0.312300
vt 0.046900 0.312300
vt 0.532900 0.532900
vt 0.496000 0.532900
vt 0.275400 0.267400
vt 0.275400 0.230600
vt 0.267400 0.267400
vt 0.267400 0.231900
vt 0.940200 0.819400
vt 0.940200 0.827600
vt 0.756500 0.827600
vt 0.756500 0.819400
vt 0.540800 0.715000
vt 0.540800 0.706700
vt 0.724600 0.706700
vt 0.724600 0.715000
vt 0.230600 0.048100
vt 0.267400 0.048100
vt 0.275400 0.046800
vt 0.312300 0.046900
vt 0.756500 0.404300
vt 0.756500 0.396000
vt 0.940200 0.396000
vt 0.940200 0.404300
vt 0.540800 0.924000
vt 0.724600 0.924000
vt 0.724600 0.932300
vt 0.540800 0.932300
vt 0.540800 0.267400
vt 0.540800 0.230600
vt 0.577700 0.230600
vt 0.577700 0.267400
vt 0.010000 0.540800
vt 0.046900 0.540800
vt 0.046900 0.577700
vt 0.010000 0.577700
vt 0.267400 0.275400
vt 0.230600 0.275400
vt 0.756500 0.275400
vt 0.940200 0.275400
vt 0.940200 0.283700
vt 0.756500 0.283700
vt 0.230600 0.540800
vt 0.577700 0.046900
vt 0.540800 0.046900
vt 0.046900 0.275400
vt 0.798300 0.267400
vt 0.761400 0.267400
vt 0.761400 0.230600
vt 0.798300 0.230600
vt 0.267400 0.540800
vt 0.010000 0.010000
vt 0.046900 0.010000
vt 0.046900 0.046900
vt 0.010000 0.046800
vt 0.940200 0.651900
vt 0.940200 0.660200
vt 0.756500 0.660200
vt 0.756500 0.651900
vt 0.756500 0.620000
vt 0.756500 0.611700
vt 0.940200 0.611700
vt 0.940200 0.620000
vt 0.761400 0.046900
vt 0.798300 0.046900
vt 0.230600 0.010000
vt 0.932200 0.795400
vt 0.748500 0.795400
vt 0.748500 0.787100
vt 0.932200 0.787100
vt 0.724600 0.964500
vt 0.540800 0.964500
vt 0.540800 0.956200
vt 0.724600 0.956200
vt 0.540800 0.010000
vt 0.577700 0.010000
vt 0.532900 0.010000
vt 0.532900 0.046800
vt 0.496000 0.046900
vt 0.496000 0.010000
vt 0.010000 0.275400
vt 0.940200 0.706700
vt 0.940200 0.715000
vt 0.756500 0.715000
vt 0.756500 0.706700
vt 0.940200 0.571500
vt 0.940200 0.579800
vt 0.756500 0.579800
vt 0.756500 0.571500
vt 0.312300 0.010000
vt 0.798300 0.010000
vt 0.761400 0.010000
vt 0.275400 0.010000
vt 0.267400 0.010000
vt 0.932200 0.867800
vt 0.748500 0.867800
vt 0.748500 0.859600
vt 0.932200 0.859600
vt 0.540800 0.787100
vt 0.724600 0.787100
vt 0.724600 0.795400
vt 0.540800 0.795400
vt 0.540800 0.867800
vt 0.540800 0.859600
vt 0.724600 0.859600
vt 0.724600 0.867800
vt 0.940200 0.355800
vt 0.940200 0.364100
vt 0.756500 0.364100
vt 0.756500 0.355800
vt 0.724600 0.755200
vt 0.540800 0.755200
vt 0.540800 0.746900
vt 0.724600 0.746900
vt 0.940200 0.531300
vt 0.940200 0.539600
vt 0.756500 0.539600
vt 0.756500 0.531300
vt 0.940200 0.315600
vt 0.940200 0.323900
vt 0.756500 0.323900
vt 0.756500 0.315600
vt 0.459200 0.724600
vt 0.275400 0.724600
vt 0.275400 0.540800
vt 0.459200 0.540800
vt 0.724600 0.674800
vt 0.540800 0.674800
vt 0.540800 0.491100
vt 0.724600 0.491100
vt 0.193700 0.806300
vt 0.193700 0.990000
vt 0.010000 0.990000
vt 0.010000 0.806300
vt 0.275400 0.940200
vt 0.275400 0.756500
vt 0.459200 0.756500
vt 0.459200 0.940200
vt 0.540800 0.459200
vt 0.540800 0.275400
vt 0.724600 0.275400
vt 0.724600 0.459200
vt 0.806300 0.010000
vt 0.990000 0.010000
vt 0.990000 0.193700
vt 0.806300 0.193700
vn -0.0034 1.0000 0.0000
vn 1.0000 0.0034 0.0000
vn 0.0000 0.0000 1.0000
vn 1.0000 0.0035 -0.0000
vn -0.0000 0.0000 -1.0000
vn -1.0000 -0.0034 0.0000
vn 0.0034 -1.0000 0.0000
vn -1.0000 -0.0035 0.0000
vn -0.0035 1.0000 0.0000
usemtl wire_028149177
s 1
f 1/1/1 2/2/1 3/3/1 4/4/1
f 1/5/2 5/6/2 6/7/2 2/8/2
f 1/9/3 4/10/3 7/11/3 5/12/3
f 6/7/2 8/13/2 9/14/2 2/8/2
f 10/15/1 11/16/1 4/4/1 3/3/1
f 11/17/3 12/18/3 7/11/3 4/10/3
f 13/19/3 14/20/3 5/12/3 7/11/3
f 15/21/1 16/22/1 17/23/1 9/24/1
f 15/25/4 9/14/2 8/13/2 18/26/2
f 15/27/5 18/28/5 19/29/5 16/30/5
f 20/31/6 21/32/6 3/33/6 17/34/6
f 22/35/3 23/36/3 24/37/3 8/38/3
f 25/39/7 26/40/7 27/41/7 19/42/7
f 9/24/1 17/23/1 3/3/1 2/2/1
f 17/23/1 16/22/1 28/43/1 29/44/1
f 19/29/5 27/45/5 28/46/5 16/30/5
f 8/13/2 24/47/2 30/48/2 18/26/2
f 6/49/7 31/50/7 22/51/7 8/52/7
f 3/53/5 21/54/5 32/55/5 10/56/5
f 33/57/1 11/16/1 10/15/1 34/58/1
f 33/59/6 34/60/6 35/61/6 36/62/6
f 33/63/3 36/64/3 12/18/3 11/17/3
f 37/65/7 38/66/7 7/67/7 12/68/7
f 35/61/6 34/60/6 39/69/6 40/70/6
f 36/64/3 41/71/3 42/72/3 12/18/3
f 43/73/1 39/74/1 29/44/1 28/43/1
f 43/75/6 44/76/6 40/70/6 39/69/6
f 43/77/5 28/46/5 27/45/5 44/78/5
f 10/79/4 32/80/4 45/81/4 29/82/4
f 46/83/3 47/84/3 48/85/3 40/86/3
f 39/74/1 34/58/1 10/15/1 29/44/1
f 27/45/5 49/87/5 50/88/5 44/78/5
f 50/89/6 46/90/6 40/70/6 44/76/6
f 40/91/7 48/92/7 51/93/7 35/94/7
f 17/95/3 29/96/3 45/97/3 20/98/3
f 52/99/7 53/100/7 54/101/7 55/102/7
f 52/103/2 55/104/2 56/105/2 14/106/2
f 52/107/3 14/20/3 13/19/3 53/108/3
f 57/109/5 31/110/5 6/111/5 56/112/5
f 56/105/2 55/104/2 58/113/2 24/47/2
f 59/114/7 54/101/7 53/100/7 60/115/7
f 60/116/3 53/108/3 13/19/3 42/72/3
f 14/106/2 56/105/2 6/7/2 5/6/2
f 61/117/7 58/118/7 62/119/7 63/120/7
f 61/121/2 30/48/2 24/47/2 58/113/2
f 61/122/5 63/123/5 64/124/5 30/125/5
f 65/126/8 62/127/8 54/128/8 66/129/8
f 67/130/1 64/131/1 49/132/1 68/133/1
f 58/118/7 55/102/7 54/101/7 62/119/7
f 62/119/7 69/134/7 70/135/7 63/120/7
f 64/124/5 63/123/5 70/136/5 49/87/5
f 19/29/5 18/28/5 30/125/5 64/124/5
f 56/137/9 24/138/9 23/139/9 57/140/9
f 54/141/5 59/142/5 71/143/5 66/144/5
f 72/145/7 73/146/7 59/114/7 60/115/7
f 72/147/6 41/148/6 74/149/6 73/150/6
f 72/151/3 60/116/3 42/72/3 41/71/3
f 35/152/5 51/153/5 75/154/5 74/155/5
f 76/156/1 42/157/1 13/158/1 77/159/1
f 74/149/6 46/90/6 78/160/6 73/150/6
f 41/148/6 36/62/6 35/61/6 74/149/6
f 79/161/7 70/135/7 69/134/7 78/162/7
f 79/163/6 78/160/6 46/90/6 50/89/6
f 79/164/5 50/88/5 49/87/5 70/136/5
f 59/165/2 69/166/2 80/167/2 71/168/2
f 78/162/7 69/134/7 59/114/7 73/146/7
f 46/169/9 74/170/9 75/171/9 47/172/9
f 62/173/3 65/174/3 80/175/3 69/176/3
f 7/177/6 38/178/6 77/179/6 13/180/6
f 19/181/6 64/182/6 67/183/6 25/184/6
f 37/185/2 12/186/2 42/187/2 76/188/2
f 27/189/2 26/190/2 68/191/2 49/192/2
f 37/193/3 76/194/3 77/195/3 38/196/3
f 48/197/6 47/198/6 75/199/6 51/200/6
f 20/201/1 45/202/1 32/203/1 21/204/1
f 67/205/5 68/206/5 26/207/5 25/208/5
f 57/209/2 23/210/2 22/211/2 31/212/2
f 71/213/7 80/214/7 65/215/7 66/216/7
