# Blender v2.79 (sub 4) OBJ File: ''
# www.blender.org
mtllib ground.mtl
o Piece000
v 1.133687 -0.377896 0.453475
v 1.133687 -0.151158 0.453475
v 1.220603 -0.168542 0.453475
v 1.293915 -0.217668 0.453475
v 1.343042 -0.290980 0.453475
v 1.360425 -0.377896 0.453475
v 1.343042 -0.464812 0.453475
v 1.293915 -0.538124 0.453475
v 1.220603 -0.587250 0.453475
v 1.133687 -0.604633 0.453475
v 1.046772 -0.587250 0.453475
v 0.973460 -0.538124 0.453475
v 0.924333 -0.464812 0.453475
v 0.906950 -0.377896 0.453475
v 0.924333 -0.290980 0.453475
v 0.973460 -0.217668 0.453475
v 1.046772 -0.168542 0.453475
v 1.220603 -0.168542 0.302317
v 1.133687 -0.151158 0.302317
v 1.133687 -0.151158 0.453475
v 1.220603 -0.168542 0.453475
v 1.293915 -0.217668 0.302317
v 1.293915 -0.217668 0.453475
v 1.343042 -0.290980 0.302317
v 1.343042 -0.290980 0.453475
v 1.360425 -0.377896 0.302317
v 1.360425 -0.377896 0.453475
v 1.343042 -0.464812 0.302317
v 1.343042 -0.464812 0.453475
v 1.293915 -0.538124 0.302317
v 1.293915 -0.538124 0.453475
v 1.220603 -0.587250 0.302317
v 1.220603 -0.587250 0.453475
v 1.133687 -0.604633 0.302317
v 1.133687 -0.604633 0.453475
v 1.046772 -0.587250 0.302317
v 1.046772 -0.587250 0.453475
v 0.973460 -0.538124 0.302317
v 0.973460 -0.538124 0.453475
v 0.924333 -0.464812 0.302317
v 0.924333 -0.464812 0.453475
v 0.906950 -0.377896 0.302317
v 0.906950 -0.377896 0.453475
v 0.924333 -0.290980 0.302317
v 0.924333 -0.290980 0.453475
v 0.973460 -0.217668 0.302317
v 0.973460 -0.217668 0.453475
v 1.046772 -0.168542 0.302317
v 1.046772 -0.168542 0.453475
v 0.377896 -0.377896 0.453475
v 0.377896 -0.151158 0.453475
v 0.464812 -0.168542 0.453475
v 0.538124 -0.217668 0.453475
v 0.587250 -0.290980 0.453475
v 0.604633 -0.377896 0.453475
v 0.587250 -0.464812 0.453475
v 0.538124 -0.538124 0.453475
v 0.464812 -0.587250 0.453475
v 0.377896 -0.604633 0.453475
v 0.290980 -0.587250 0.453475
v 0.217668 -0.538124 0.453475
v 0.168542 -0.464812 0.453475
v 0.151158 -0.377896 0.453475
v 0.168542 -0.290980 0.453475
v 0.217668 -0.217668 0.453475
v 0.290980 -0.168542 0.453475
v 0.464812 -0.168542 0.302317
v 0.377896 -0.151158 0.302317
v 0.377896 -0.151158 0.453475
v 0.464812 -0.168542 0.453475
v 0.538124 -0.217668 0.302317
v 0.538124 -0.217668 0.453475
v 0.587250 -0.290980 0.302317
v 0.587250 -0.290980 0.453475
v 0.604633 -0.377896 0.302317
v 0.604633 -0.377896 0.453475
v 0.587250 -0.464812 0.302317
v 0.587250 -0.464812 0.453475
v 0.538124 -0.538124 0.302317
v 0.538124 -0.538124 0.453475
v 0.464812 -0.587250 0.302317
v 0.464812 -0.587250 0.453475
v 0.377896 -0.604633 0.302317
v 0.377896 -0.604633 0.453475
v 0.290980 -0.587250 0.302317
v 0.290980 -0.587250 0.453475
v 0.217668 -0.538124 0.302317
v 0.217668 -0.538124 0.453475
v 0.168542 -0.464812 0.302317
v 0.168542 -0.464812 0.453475
v 0.151158 -0.377896 0.302317
v 0.151158 -0.377896 0.453475
v 0.168542 -0.290980 0.302317
v 0.168542 -0.290980 0.453475
v 0.217668 -0.217668 0.302317
v 0.217668 -0.217668 0.453475
v 0.290980 -0.168542 0.302317
v 0.290980 -0.168542 0.453475
v 1.133687 -1.133687 0.453475
v 1.133687 -0.906950 0.453475
v 1.220603 -0.924333 0.453475
v 1.293915 -0.973460 0.453475
v 1.343042 -1.046772 0.453475
v 1.360425 -1.133687 0.453475
v 1.343042 -1.220603 0.453475
v 1.293915 -1.293915 0.453475
v 1.220603 -1.343042 0.453475
v 1.133687 -1.360425 0.453475
v 1.046772 -1.343042 0.453475
v 0.973460 -1.293915 0.453475
v 0.924333 -1.220603 0.453475
v 0.906950 -1.133687 0.453475
v 0.924333 -1.046772 0.453475
v 0.973460 -0.973460 0.453475
v 1.046772 -0.924333 0.453475
v 1.220603 -0.924333 0.302317
v 1.133687 -0.906950 0.302317
v 1.133687 -0.906950 0.453475
v 1.220603 -0.924333 0.453475
v 1.293915 -0.973460 0.302317
v 1.293915 -0.973460 0.453475
v 1.343042 -1.046772 0.302317
v 1.343042 -1.046772 0.453475
v 1.360425 -1.133687 0.302317
v 1.360425 -1.133687 0.453475
v 1.343042 -1.220603 0.302317
v 1.343042 -1.220603 0.453475
v 1.293915 -1.293915 0.302317
v 1.293915 -1.293915 0.453475
v 1.220603 -1.343042 0.302317
v 1.220603 -1.343042 0.453475
v 1.133687 -1.360425 0.302317
v 1.133687 -1.360425 0.453475
v 1.046772 -1.343042 0.302317
v 1.046772 -1.343042 0.453475
v 0.973460 -1.293915 0.302317
v 0.973460 -1.293915 0.453475
v 0.924333 -1.220603 0.302317
v 0.924333 -1.220603 0.453475
v 0.906950 -1.133687 0.302317
v 0.906950 -1.133687 0.453475
v 0.924333 -1.046772 0.302317
v 0.924333 -1.046772 0.453475
v 0.973460 -0.973460 0.302317
v 0.973460 -0.973460 0.453475
v 1.046772 -0.924333 0.302317
v 1.046772 -0.924333 0.453475
v 0.377896 -1.133687 0.453475
v 0.377896 -0.906950 0.453475
v 0.464812 -0.924333 0.453475
v 0.538124 -0.973460 0.453475
v 0.587250 -1.046772 0.453475
v 0.604633 -1.133687 0.453475
v 0.587250 -1.220603 0.453475
v 0.538124 -1.293915 0.453475
v 0.464812 -1.343042 0.453475
v 0.377896 -1.360425 0.453475
v 0.290980 -1.343042 0.453475
v 0.217668 -1.293915 0.453475
v 0.168542 -1.220603 0.453475
v 0.151158 -1.133687 0.453475
v 0.168542 -1.046772 0.453475
v 0.217668 -0.973460 0.453475
v 0.290980 -0.924333 0.453475
v 0.464812 -0.924333 0.302317
v 0.377896 -0.906950 0.302317
v 0.377896 -0.906950 0.453475
v 0.464812 -0.924333 0.453475
v 0.538124 -0.973460 0.302317
v 0.538124 -0.973460 0.453475
v 0.587250 -1.046772 0.302317
v 0.587250 -1.046772 0.453475
v 0.604633 -1.133687 0.302317
v 0.604633 -1.133687 0.453475
v 0.587250 -1.220603 0.302317
v 0.587250 -1.220603 0.453475
v 0.538124 -1.293915 0.302317
v 0.538124 -1.293915 0.453475
v 0.464812 -1.343042 0.302317
v 0.464812 -1.343042 0.453475
v 0.377896 -1.360425 0.302317
v 0.377896 -1.360425 0.453475
v 0.290980 -1.343042 0.302317
v 0.290980 -1.343042 0.453475
v 0.217668 -1.293915 0.302317
v 0.217668 -1.293915 0.453475
v 0.168542 -1.220603 0.302317
v 0.168542 -1.220603 0.453475
v 0.151158 -1.133687 0.302317
v 0.151158 -1.133687 0.453475
v 0.168542 -1.046772 0.302317
v 0.168542 -1.046772 0.453475
v 0.217668 -0.973460 0.302317
v 0.217668 -0.973460 0.453475
v 0.290980 -0.924333 0.302317
v 0.290980 -0.924333 0.453475
v 1.511583 -0.000000 0.302317
v 0.000000 -0.000000 0.302317
v 0.000000 -1.511583 0.302317
v 1.511583 -1.511583 0.302317
v 1.511583 -1.511583 -0.000000
v 0.000000 -1.511583 -0.000000
v 0.000000 -1.511583 0.302317
v 1.511583 -1.511583 0.302317
v 1.511583 0.000000 0.000000
v 1.511583 -1.511583 -0.000000
v 1.511583 -1.511583 0.302317
v 1.511583 -0.000000 0.302317
v 0.000000 0.000000 0.000000
v 1.511583 0.000000 0.000000
v 1.511583 -0.000000 0.302317
v 0.000000 -0.000000 0.302317
v 0.000000 -1.511583 -0.000000
v 0.000000 0.000000 0.000000
v 0.000000 -0.000000 0.302317
v 0.000000 -1.511583 0.302317
v 1.360425 -0.151158 0.151158
v 0.151158 -0.151158 0.151158
v 0.151158 -1.360425 0.151158
v 1.360425 -1.360425 0.151158
v 1.360425 -1.360425 -0.000000
v 0.151158 -1.360425 -0.000000
v 0.151158 -1.360425 0.151158
v 1.360425 -1.360425 0.151158
v 1.360425 -0.151158 -0.000000
v 1.360425 -1.360425 -0.000000
v 1.360425 -1.360425 0.151158
v 1.360425 -0.151158 0.151158
v 0.151158 -0.151158 -0.000000
v 1.360425 -0.151158 -0.000000
v 1.360425 -0.151158 0.151158
v 0.151158 -0.151158 0.151158
v 0.151158 -1.360425 -0.000000
v 0.151158 -0.151158 -0.000000
v 0.151158 -0.151158 0.151158
v 0.151158 -1.360425 0.151158
v 1.511583 -1.511583 -0.000000
v 1.511583 0.000000 0.000000
v 1.360425 -0.151158 -0.000000
v 1.360425 -1.360425 -0.000000
v 0.000000 -1.511583 -0.000000
v 0.151158 -1.360425 -0.000000
v 0.000000 0.000000 0.000000
v 0.151158 -0.151158 -0.000000
vn -0.0000 0.0000 -1.0000
vn 0.3818 0.9243 0.0000
vn 0.0000 1.0000 0.0000
vn 0.7071 0.7071 0.0000
vn 0.9243 0.3818 0.0000
vn 1.0000 0.0000 0.0000
vn 0.9243 -0.3818 -0.0000
vn 0.7071 -0.7071 -0.0000
vn 0.3818 -0.9243 0.0000
vn 0.0000 -1.0000 0.0000
vn -0.3818 -0.9243 0.0000
vn -0.7071 -0.7071 0.0000
vn -0.9243 -0.3818 -0.0000
vn -1.0000 -0.0000 0.0000
vn -0.9243 0.3818 0.0000
vn -0.7071 0.7071 0.0000
vn -0.3818 0.9243 -0.0000
vn 0.3817 -0.9243 0.0000
vn -0.9243 -0.3817 -0.0000
vn -0.9243 0.3817 0.0000
vn 0.0000 -0.0000 1.0000
usemtl Red
s 1
f 1//1 2//1 3//1
f 1//1 3//1 4//1
f 1//1 4//1 5//1
f 1//1 5//1 6//1
f 1//1 6//1 7//1
f 1//1 7//1 8//1
f 1//1 8//1 9//1
f 1//1 9//1 10//1
f 1//1 10//1 11//1
f 1//1 11//1 12//1
f 1//1 12//1 13//1
f 1//1 13//1 14//1
f 1//1 14//1 15//1
f 1//1 15//1 16//1
f 1//1 16//1 17//1
f 1//1 17//1 2//1
f 18//2 19//3 20//3
f 20//3 21//2 18//2
f 22//4 18//2 21//2
f 21//2 23//4 22//4
f 24//5 22//4 23//4
f 23//4 25//5 24//5
f 26//6 24//5 25//5
f 25//5 27//6 26//6
f 28//7 26//6 27//6
f 27//6 29//7 28//7
f 30//8 28//7 29//7
f 29//7 31//8 30//8
f 32//9 30//8 31//8
f 31//8 33//9 32//9
f 34//10 32//9 33//9
f 33//9 35//10 34//10
f 36//11 34//10 35//10
f 35//10 37//11 36//11
f 38//12 36//11 37//11
f 37//11 39//12 38//12
f 40//13 38//12 39//12
f 39//12 41//13 40//13
f 42//14 40//13 41//13
f 41//13 43//14 42//14
f 44//15 42//14 43//14
f 43//14 45//15 44//15
f 46//16 44//15 45//15
f 45//15 47//16 46//16
f 48//17 46//16 47//16
f 47//16 49//17 48//17
f 19//3 48//17 49//17
f 49//17 20//3 19//3
f 50//1 51//1 52//1
f 50//1 52//1 53//1
f 50//1 53//1 54//1
f 50//1 54//1 55//1
f 50//1 55//1 56//1
f 50//1 56//1 57//1
f 50//1 57//1 58//1
f 50//1 58//1 59//1
f 50//1 59//1 60//1
f 50//1 60//1 61//1
f 50//1 61//1 62//1
f 50//1 62//1 63//1
f 50//1 63//1 64//1
f 50//1 64//1 65//1
f 50//1 65//1 66//1
f 50//1 66//1 51//1
f 67//2 68//3 69//3
f 69//3 70//2 67//2
f 71//4 67//2 70//2
f 70//2 72//4 71//4
f 73//5 71//4 72//4
f 72//4 74//5 73//5
f 75//6 73//5 74//5
f 74//5 76//6 75//6
f 77//7 75//6 76//6
f 76//6 78//7 77//7
f 79//8 77//7 78//7
f 78//7 80//8 79//8
f 81//9 79//8 80//8
f 80//8 82//9 81//9
f 83//10 81//9 82//9
f 82//9 84//10 83//10
f 85//11 83//10 84//10
f 84//10 86//11 85//11
f 87//12 85//11 86//11
f 86//11 88//12 87//12
f 89//13 87//12 88//12
f 88//12 90//13 89//13
f 91//14 89//13 90//13
f 90//13 92//14 91//14
f 93//15 91//14 92//14
f 92//14 94//15 93//15
f 95//16 93//15 94//15
f 94//15 96//16 95//16
f 97//17 95//16 96//16
f 96//16 98//17 97//17
f 68//3 97//17 98//17
f 98//17 69//3 68//3
f 99//1 100//1 101//1
f 99//1 101//1 102//1
f 99//1 102//1 103//1
f 99//1 103//1 104//1
f 99//1 104//1 105//1
f 99//1 105//1 106//1
f 99//1 106//1 107//1
f 99//1 107//1 108//1
f 99//1 108//1 109//1
f 99//1 109//1 110//1
f 99//1 110//1 111//1
f 99//1 111//1 112//1
f 99//1 112//1 113//1
f 99//1 113//1 114//1
f 99//1 114//1 115//1
f 99//1 115//1 100//1
f 116//2 117//3 118//3
f 118//3 119//2 116//2
f 120//4 116//2 119//2
f 119//2 121//4 120//4
f 122//5 120//4 121//4
f 121//4 123//5 122//5
f 124//6 122//5 123//5
f 123//5 125//6 124//6
f 126//7 124//6 125//6
f 125//6 127//7 126//7
f 128//8 126//7 127//7
f 127//7 129//8 128//8
f 130//18 128//8 129//8
f 129//8 131//9 130//18
f 132//10 130//18 131//9
f 131//9 133//10 132//10
f 134//11 132//10 133//10
f 133//10 135//11 134//11
f 136//12 134//11 135//11
f 135//11 137//12 136//12
f 138//19 136//12 137//12
f 137//12 139//13 138//19
f 140//14 138//19 139//13
f 139//13 141//14 140//14
f 142//15 140//14 141//14
f 141//14 143//15 142//15
f 144//16 142//15 143//15
f 143//15 145//16 144//16
f 146//17 144//16 145//16
f 145//16 147//17 146//17
f 117//3 146//17 147//17
f 147//17 118//3 117//3
f 148//1 149//1 150//1
f 148//1 150//1 151//1
f 148//1 151//1 152//1
f 148//1 152//1 153//1
f 148//1 153//1 154//1
f 148//1 154//1 155//1
f 148//1 155//1 156//1
f 148//1 156//1 157//1
f 148//1 157//1 158//1
f 148//1 158//1 159//1
f 148//1 159//1 160//1
f 148//1 160//1 161//1
f 148//1 161//1 162//1
f 148//1 162//1 163//1
f 148//1 163//1 164//1
f 148//1 164//1 149//1
f 165//2 166//3 167//3
f 167//3 168//2 165//2
f 169//4 165//2 168//2
f 168//2 170//4 169//4
f 171//5 169//4 170//4
f 170//4 172//5 171//5
f 173//6 171//5 172//5
f 172//5 174//6 173//6
f 175//7 173//6 174//6
f 174//6 176//7 175//7
f 177//8 175//7 176//7
f 176//7 178//8 177//8
f 179//9 177//8 178//8
f 178//8 180//9 179//9
f 181//10 179//9 180//9
f 180//9 182//10 181//10
f 183//11 181//10 182//10
f 182//10 184//11 183//11
f 185//12 183//11 184//11
f 184//11 186//12 185//12
f 187//13 185//12 186//12
f 186//12 188//13 187//13
f 189//14 187//13 188//13
f 188//13 190//14 189//14
f 191//20 189//14 190//14
f 190//14 192//20 191//20
f 193//16 191//20 192//20
f 192//20 194//16 193//16
f 195//17 193//16 194//16
f 194//16 196//17 195//17
f 166//3 195//17 196//17
f 196//17 167//3 166//3
f 197//21 198//21 199//21
f 199//21 200//21 197//21
f 201//3 202//3 203//3
f 203//3 204//3 201//3
f 205//14 206//14 207//14
f 207//14 208//14 205//14
f 209//10 210//10 211//10
f 211//10 212//10 209//10
f 213//6 214//6 215//6
f 215//6 216//6 213//6
f 217//21 218//21 219//21
f 219//21 220//21 217//21
f 221//3 222//3 223//3
f 223//3 224//3 221//3
f 225//14 226//14 227//14
f 227//14 228//14 225//14
f 229//10 230//10 231//10
f 231//10 232//10 229//10
f 233//6 234//6 235//6
f 235//6 236//6 233//6
f 237//21 238//21 239//21
f 239//21 240//21 237//21
f 241//21 237//21 240//21
f 240//21 242//21 241//21
f 243//21 241//21 242//21
f 242//21 244//21 243//21
f 238//21 243//21 244//21
f 244//21 239//21 238//21
